# xmcd
#
# Track frame offsets: 
#        150
#        20024
#        37649
#        53990
#        85155
#        123010
#        142172
#        166249
#        197396
#        223281
#        250203
#        267107
#        289645
#        304460
#
# Disc length: 4162 seconds
#
# Revision: 0
# Processed by: cddbd v1.5.2PL0 Copyright (c) Steve Scherf et al.
# Submitted via: ExactAudioCopy v1.0b1
#
DISCID=c510400e
DTITLE=Hansi Biebl - Unter den Wolken und mehr
DYEAR=2010
DGENRE=Blues
TTITLE0=Jeder andere würde geh'n
TTITLE1=Eierkuchenhaus
TTITLE2=Halbes Herz
TTITLE3=Verdammt
TTITLE4=Herz auf Samt
TTITLE5=Schattenmann
TTITLE6=Die letzte Flasche
TTITLE7=Unter den Wolken
TTITLE8=Freiheit
TTITLE9=15 Uhr !6
TTITLE10=Was für ein Tag
TTITLE11=Unser Mann (für John Lennon)
TTITLE12=Der jüngste Tag
TTITLE13=Dies Irae
EXTD=
EXTT0=
EXTT1=
EXTT2=
EXTT3=
EXTT4=
EXTT5=
EXTT6=
EXTT7=
EXTT8=
EXTT9=
EXTT10=
EXTT11=
EXTT12=
EXTT13=
PLAYORDER=
